<svg width="22" height="36" viewBox="0 0 22 36" fill="none" xmlns="http://www.w3.org/2000/svg">
<path d="M9.56473 32.6179C9.42657 31.1388 9.86409 29.8921 11.0846 28.9412C11.9135 28.3073 12.8807 27.9903 13.94 28.0114C16.45 28.0537 17.9928 29.6808 18.2001 32.4489C19.6278 32.5546 20.2956 32.301 20.2265 30.9486C20.1805 30.1245 20.0653 29.3004 20.0423 28.4763C20.0193 28.0537 19.789 27.8424 19.4205 27.6945C17.9468 27.1873 16.496 26.6802 14.9992 26.2153C13.5715 25.7716 12.0978 25.4335 10.6701 25.032C10.3477 24.9475 10.1174 24.9686 9.84106 25.1799C9.24235 25.6236 8.52849 25.8772 7.72253 25.8772C5.53491 25.835 3.37031 25.7927 1.18269 25.7716C1.09058 25.7716 0.998472 25.7716 0.906362 25.7504C0.307644 25.6448 -0.060797 25.2644 0.0082858 24.7784C0.0773686 24.2924 0.514893 24.0177 1.13664 24.06C2.95582 24.1445 4.775 24.229 6.59418 24.2713C7.07775 24.2924 7.56133 24.2079 8.06794 24.1656C8.02188 24.06 8.02188 24.0177 7.99886 24.0177C5.97243 23.0668 3.96903 22.0948 1.9426 21.1439C1.64324 21.0171 1.2748 20.9749 0.952417 20.9326C0.3537 20.8481 0.0082858 20.5311 0.0082858 20.0451C0.0313134 19.538 0.468838 19.1576 1.06755 19.2421C1.91958 19.3901 2.79462 19.5802 3.57756 19.9183C5.2816 20.6579 6.96262 21.482 8.59757 22.3484C9.7029 22.9189 10.8543 23.3204 12.0747 23.6796C14.6538 24.3981 17.1869 25.201 19.7429 25.9829C21.2397 26.4266 21.9766 27.3775 21.9536 28.8355C21.9305 29.8709 22.0687 30.9064 21.9536 31.9206C21.8154 33.1462 20.8713 33.9069 19.5587 34.0971C19.3975 34.1182 19.2593 34.1605 19.0982 34.1605C18.0159 34.1394 17.1869 34.5409 16.3118 35.1959C14.6078 36.4849 12.1438 36.1679 10.624 34.6465C10.3707 34.3929 10.1404 34.3084 9.79501 34.3084C7.00867 34.3507 4.24536 34.3929 1.45902 34.4352C1.29783 34.4352 1.15967 34.4352 0.998472 34.4352C0.399755 34.4141 0.0082858 34.0971 0.0082858 33.6111C0.0082858 33.104 0.399755 32.7447 1.0215 32.7447C3.64664 32.7025 6.27179 32.6602 8.89693 32.6391C9.08115 32.6179 9.2884 32.6179 9.56473 32.6179ZM11.3839 31.9629C11.3839 33.2519 12.4432 34.245 13.8248 34.2662C15.1604 34.2873 16.3348 33.2519 16.3348 32.0052C16.3348 30.7584 15.2295 29.723 13.8709 29.7019C12.5123 29.6808 11.3839 30.695 11.3839 31.9629Z" fill="#181458"/>
<path d="M18.2923 7.13426C18.2463 8.88811 17.6936 10.3884 16.9797 11.8464C15.529 14.7202 13.5717 17.2771 11.361 19.7071C10.9235 20.172 10.3248 20.2354 9.91027 19.7916C7.12393 16.6854 4.52181 13.4312 3.27832 9.50091C2.21906 6.16224 3.55466 2.82357 6.50219 1.09084C11.2228 -1.6773 17.5785 1.11197 18.1772 6.2045C18.2232 6.54259 18.2693 6.90182 18.2923 7.13426ZM10.5781 17.911C12.7196 15.3753 14.7 12.8184 15.8744 9.81787C16.3119 8.67681 16.5192 7.53574 16.335 6.31015C16.0356 4.2182 14.3546 2.44321 12.1439 1.87268C9.81816 1.30215 7.37723 2.04173 5.99558 3.77446C4.54484 5.61284 4.45273 7.59913 5.23567 9.66996C6.41008 12.7128 8.41348 15.2908 10.5781 17.911Z" fill="#181458"/>
<path d="M0.928916 29.3638C0.422309 29.3638 0.0308401 28.9834 0.0078125 28.5397C0.0078125 28.0537 0.445336 27.6733 0.951943 27.6944C1.45855 27.7156 1.85002 28.0959 1.82699 28.5608C1.85002 28.9834 1.43552 29.3638 0.928916 29.3638Z" fill="#181458"/>
<path d="M6.45646 28.5186C6.45646 28.9835 6.04197 29.3427 5.53536 29.3427C5.02875 29.3427 4.61426 28.9835 4.61426 28.5186C4.61426 28.0326 5.02875 27.6522 5.55839 27.6522C6.06499 27.6945 6.45646 28.0748 6.45646 28.5186Z" fill="#181458"/>
<path d="M3.23165 31.0544C2.72504 31.0544 2.33357 30.6741 2.31055 30.2303C2.31055 29.7654 2.70202 29.3851 3.20862 29.3851C3.73826 29.3639 4.15275 29.7654 4.15275 30.2514C4.12973 30.6741 3.73826 31.0544 3.23165 31.0544Z" fill="#181458"/>
<path d="M11.3848 31.9629C11.3848 30.695 12.5131 29.6807 13.8717 29.7019C15.2304 29.723 16.3357 30.7584 16.3357 32.0051C16.3357 33.2518 15.1613 34.2873 13.8257 34.2661C12.444 34.245 11.3848 33.2518 11.3848 31.9629Z" fill="white"/>
<path d="M10.578 17.9108C8.41345 15.3117 6.38702 12.7126 5.23564 9.66974C4.45271 7.59892 4.54482 5.5915 5.99555 3.77425C7.37721 2.04152 9.81813 1.30194 12.1439 1.8936C14.3546 2.443 16.0356 4.21799 16.358 6.28881C16.5422 7.5144 16.3349 8.65547 15.8974 9.79653C14.7 12.7971 12.7426 15.3539 10.578 17.9108ZM14.3776 7.19744C14.3776 5.27453 12.6966 3.73198 10.578 3.71085C8.45951 3.71085 6.77849 5.2534 6.77849 7.17631C6.77849 9.09921 8.48253 10.684 10.555 10.6629C12.6736 10.6629 14.3776 9.09921 14.3776 7.19744Z" fill="white"/>
<path d="M14.3771 7.19772C14.3771 9.12063 12.673 10.6843 10.5775 10.6843C8.50505 10.6843 6.77798 9.12063 6.80101 7.19772C6.80101 5.27482 8.48202 3.73227 10.6006 3.73227C12.6961 3.71114 14.3771 5.27482 14.3771 7.19772ZM12.5349 7.17659C12.5349 6.18344 11.6368 5.4016 10.5545 5.4016C9.49523 5.42273 8.64322 6.2257 8.64322 7.19772C8.64322 8.14861 9.54129 8.97271 10.5775 8.99384C11.6368 8.99384 12.5349 8.14861 12.5349 7.17659Z" fill="#181458"/>
<path d="M12.5358 7.17661C12.5358 8.14863 11.6377 8.99386 10.5554 8.97273C9.51917 8.97273 8.62109 8.14863 8.62109 7.17661C8.62109 6.2046 9.47311 5.40162 10.5324 5.38049C11.6377 5.40162 12.5358 6.18346 12.5358 7.17661Z" fill="white"/>
</svg>
